# xmcd
#
# Track frame offsets:
#	150
#	10905
#	21185
#	34077
#	46522
#	58742
#	69780
#	82685
#	95360
#	109452
#	122955
#	134800
#	146430
#	157832
#	170890
#	183857
#	196365
#	207777
#	220217
#
# Disc length: 3081 seconds
#
# Revision: 1
# Processed by: cddbd v1.5.2PL0 Copyright (c) Steve Scherf et al.
# Submitted via: audiograbber 1.83.01
#
DISCID=050c0713
DTITLE=Various Artist - Single Man Blues
DYEAR=1993
DGENRE=Blues
TTITLE0=Professor Longhair - Mardi Gras In New Orleans
TTITLE1=Professor Longhair - Professor Longhair's Boogie
TTITLE2=Rufus Thomas - I'll Be A Good Boy
TTITLE3=Rufus Thomas - I'm So Worried
TTITLE4=Willie Lane - Prowlin' Ground Hog
TTITLE5=Willie Lane - Too Many Women Blues
TTITLE6=Frankie Lee Sims - Cross Country Blues
TTITLE7=Frankie Lee Sims - Home Again Blues
TTITLE8=Rattlesnake Cooper - Rattlesnake Blues
TTITLE9=Rattlesnake Cooper - Lost Woman
TTITLE10=Rattlesnake Cooper - I Treated You Wrong
TTITLE11=Sonny Boy Davis - Rhythm Blues
TTITLE12=Sonny Boy Davis - I Don't Live Hear No More
TTITLE13=Frankie Lee Sims - Single Man Blues
TTITLE14=Frankie Lee Sims - Don't Forget Me Baby
TTITLE15=Willie Lane - Howling Wolf Blues
TTITLE16=Willie Lane - Black Cat Rag
TTITLE17=Professor Longhair - She Ain't Got No Hair
TTITLE18=Professor Longhair - Bye Bye Baby
EXTD=
EXTT0=
EXTT1=
EXTT2=
EXTT3=
EXTT4=
EXTT5=
EXTT6=
EXTT7=
EXTT8=
EXTT9=
EXTT10=
EXTT11=
EXTT12=
EXTT13=
EXTT14=
EXTT15=
EXTT16=
EXTT17=
EXTT18=
PLAYORDER=
